<svg width="16" height="16" viewBox="0 0 16 16" fill="none" xmlns="http://www.w3.org/2000/svg">
<path d="M6.75264 5.99986V10.4952C6.75783 10.8239 6.89206 11.1374 7.12635 11.368C7.36065 11.5986 7.67622 11.7279 8.00498 11.7279C8.33374 11.7279 8.64931 11.5986 8.88361 11.368C9.1179 11.1374 9.25213 10.8239 9.25732 10.4952L9.26139 4.60298C9.26479 4.32202 9.2124 4.04318 9.10724 3.78262C9.00208 3.52206 8.84625 3.28497 8.64877 3.08508C8.4513 2.8852 8.21611 2.7265 7.95685 2.61819C7.69758 2.50987 7.4194 2.4541 7.13842 2.4541C6.85744 2.4541 6.57925 2.50987 6.31999 2.61819C6.06072 2.7265 5.82554 2.8852 5.62806 3.08508C5.43059 3.28497 5.27475 3.52206 5.16959 3.78262C5.06443 4.04318 5.01204 4.32202 5.01545 4.60298V10.5349C5.00972 10.9304 5.08269 11.3231 5.2301 11.6902C5.37751 12.0573 5.59642 12.3915 5.87412 12.6732C6.15181 12.955 6.48274 13.1787 6.84767 13.3314C7.21259 13.4841 7.60424 13.5627 7.99982 13.5627C8.39541 13.5627 8.78706 13.4841 9.15198 13.3314C9.51691 13.1787 9.84784 12.955 10.1255 12.6732C10.4032 12.3915 10.6221 12.0573 10.7695 11.6902C10.917 11.3231 10.9899 10.9304 10.9842 10.5349V4.99173" stroke="black" stroke-miterlimit="10" stroke-linecap="round"/>
</svg>
