<svg width="50" height="50" viewBox="0 0 50 50" fill="none" xmlns="http://www.w3.org/2000/svg">
<path d="M43.75 37.2396C43.75 38.9663 43.0641 40.6222 41.8431 41.8431C40.6222 43.0641 38.9663 43.75 37.2396 43.75H12.7604C11.0337 43.75 9.3778 43.0641 8.15686 41.8431C6.93592 40.6222 6.25 38.9663 6.25 37.2396V16.6667L25 15.625L43.75 16.6667V37.2396Z" fill="url(#paint0_linear_5_13)"/>
<path d="M43.75 37.2396C43.75 38.9663 43.0641 40.6222 41.8431 41.8431C40.6222 43.0641 38.9663 43.75 37.2396 43.75H12.7604C11.0337 43.75 9.3778 43.0641 8.15686 41.8431C6.93592 40.6222 6.25 38.9663 6.25 37.2396V16.6667L25 15.625L43.75 16.6667V37.2396Z" fill="url(#paint1_linear_5_13)"/>
<g filter="url(#filter0_d_5_13)">
<path d="M16.1458 27.0833C16.8365 27.0833 17.4989 26.809 17.9873 26.3206C18.4756 25.8322 18.75 25.1698 18.75 24.4792C18.75 23.7885 18.4756 23.1261 17.9873 22.6377C17.4989 22.1494 16.8365 21.875 16.1458 21.875C15.4552 21.875 14.7928 22.1494 14.3044 22.6377C13.816 23.1261 13.5417 23.7885 13.5417 24.4792C13.5417 25.1698 13.816 25.8322 14.3044 26.3206C14.7928 26.809 15.4552 27.0833 16.1458 27.0833ZM27.6042 24.4792C27.6042 25.1698 27.3298 25.8322 26.8414 26.3206C26.353 26.809 25.6907 27.0833 25 27.0833C24.3093 27.0833 23.647 26.809 23.1586 26.3206C22.6702 25.8322 22.3958 25.1698 22.3958 24.4792C22.3958 23.7885 22.6702 23.1261 23.1586 22.6377C23.647 22.1494 24.3093 21.875 25 21.875C25.6907 21.875 26.353 22.1494 26.8414 22.6377C27.3298 23.1261 27.6042 23.7885 27.6042 24.4792ZM33.8542 27.0833C34.5448 27.0833 35.2072 26.809 35.6956 26.3206C36.184 25.8322 36.4583 25.1698 36.4583 24.4792C36.4583 23.7885 36.184 23.1261 35.6956 22.6377C35.2072 22.1494 34.5448 21.875 33.8542 21.875C33.1635 21.875 32.5011 22.1494 32.0127 22.6377C31.5244 23.1261 31.25 23.7885 31.25 24.4792C31.25 25.1698 31.5244 25.8322 32.0127 26.3206C32.5011 26.809 33.1635 27.0833 33.8542 27.0833ZM18.75 32.8125C18.75 33.5032 18.4756 34.1656 17.9873 34.6539C17.4989 35.1423 16.8365 35.4167 16.1458 35.4167C15.4552 35.4167 14.7928 35.1423 14.3044 34.6539C13.816 34.1656 13.5417 33.5032 13.5417 32.8125C13.5417 32.1218 13.816 31.4595 14.3044 30.9711C14.7928 30.4827 15.4552 30.2083 16.1458 30.2083C16.8365 30.2083 17.4989 30.4827 17.9873 30.9711C18.4756 31.4595 18.75 32.1218 18.75 32.8125ZM25 35.4167C25.6907 35.4167 26.353 35.1423 26.8414 34.6539C27.3298 34.1656 27.6042 33.5032 27.6042 32.8125C27.6042 32.1218 27.3298 31.4595 26.8414 30.9711C26.353 30.4827 25.6907 30.2083 25 30.2083C24.3093 30.2083 23.647 30.4827 23.1586 30.9711C22.6702 31.4595 22.3958 32.1218 22.3958 32.8125C22.3958 33.5032 22.6702 34.1656 23.1586 34.6539C23.647 35.1423 24.3093 35.4167 25 35.4167Z" fill="url(#paint2_linear_5_13)"/>
</g>
<path d="M12.7604 6.25C11.0337 6.25 9.3778 6.93592 8.15686 8.15686C6.93592 9.3778 6.25 11.0337 6.25 12.7604V16.6667H43.75V12.7604C43.75 11.0337 43.0641 9.3778 41.8431 8.15686C40.6222 6.93592 38.9663 6.25 37.2396 6.25H12.7604Z" fill="url(#paint3_linear_5_13)"/>
<defs>
<filter id="filter0_d_5_13" x="12.8747" y="21.5415" width="24.2507" height="14.8757" filterUnits="userSpaceOnUse" color-interpolation-filters="sRGB">
<feFlood flood-opacity="0" result="BackgroundImageFix"/>
<feColorMatrix in="SourceAlpha" type="matrix" values="0 0 0 0 0 0 0 0 0 0 0 0 0 0 0 0 0 0 127 0" result="hardAlpha"/>
<feOffset dy="0.3335"/>
<feGaussianBlur stdDeviation="0.3335"/>
<feColorMatrix type="matrix" values="0 0 0 0 0.1242 0 0 0 0 0.323337 0 0 0 0 0.7958 0 0 0 0.32 0"/>
<feBlend mode="normal" in2="BackgroundImageFix" result="effect1_dropShadow_5_13"/>
<feBlend mode="normal" in="SourceGraphic" in2="effect1_dropShadow_5_13" result="shape"/>
</filter>
<linearGradient id="paint0_linear_5_13" x1="31.7708" y1="47.2042" x2="21.8469" y2="16.775" gradientUnits="userSpaceOnUse">
<stop stop-color="#B3E0FF"/>
<stop offset="1" stop-color="#B3E0FF"/>
</linearGradient>
<linearGradient id="paint1_linear_5_13" x1="29.0177" y1="27.1313" x2="33.9198" y2="50.2385" gradientUnits="userSpaceOnUse">
<stop stop-color="#DCF8FF" stop-opacity="0"/>
<stop offset="1" stop-color="#FF6CE8" stop-opacity="0.7"/>
</linearGradient>
<linearGradient id="paint2_linear_5_13" x1="22.9167" y1="20.3125" x2="27.1281" y2="47.3885" gradientUnits="userSpaceOnUse">
<stop stop-color="#0078D4"/>
<stop offset="1" stop-color="#0067BF"/>
</linearGradient>
<linearGradient id="paint3_linear_5_13" x1="6.25" y1="6.25" x2="38.274" y2="-4.08958" gradientUnits="userSpaceOnUse">
<stop stop-color="#0094F0"/>
<stop offset="1" stop-color="#2764E7"/>
</linearGradient>
</defs>
</svg>
