<svg width="24" height="24" viewBox="0 0 24 24" fill="none" xmlns="http://www.w3.org/2000/svg">
<path fill-rule="evenodd" clip-rule="evenodd" d="M16.1369 4.72825L17.9669 6.55825C20.6559 9.24825 21.9999 10.5922 21.9999 12.2622C21.9999 13.9332 20.6559 15.2772 17.9669 17.9662C15.2769 20.6562 13.9329 22.0002 12.2619 22.0002C10.5919 22.0002 9.24687 20.6562 6.55787 17.9672L4.72787 16.1372C3.18287 14.5912 2.40987 13.8192 2.12287 12.8162C1.83487 11.8132 2.08087 10.7482 2.57287 8.61925L2.85587 7.39125C3.26887 5.59925 3.47587 4.70325 4.08887 4.08925C4.70187 3.47525 5.59887 3.26925 7.39087 2.85625L8.61887 2.57225C10.7489 2.08125 11.8129 1.83525 12.8159 2.12225C13.8189 2.41025 14.5919 3.18325 16.1369 4.72825ZM11.1459 14.3282C10.4729 13.6562 10.4779 12.6902 10.8809 11.9252C10.7811 11.7811 10.735 11.6066 10.7504 11.4321C10.7659 11.2575 10.8421 11.0938 10.9657 10.9695C11.0892 10.8452 11.2524 10.7681 11.4269 10.7517C11.6014 10.7352 11.7762 10.7803 11.9209 10.8792C12.2609 10.6992 12.6339 10.6032 13.0059 10.6072C13.2048 10.6091 13.3948 10.6899 13.5341 10.8319C13.6735 10.9738 13.7507 11.1653 13.7489 11.3642C13.747 11.5632 13.6662 11.7532 13.5242 11.8925C13.3823 12.0319 13.1908 12.1091 12.9919 12.1072C12.7603 12.1158 12.5415 12.2153 12.3829 12.3842C11.9959 12.7712 12.0969 13.1592 12.2059 13.2682C12.3159 13.3772 12.7029 13.4782 13.0899 13.0912C13.8739 12.3072 15.2279 12.0472 16.0949 12.9142C16.7679 13.5872 16.7629 14.5532 16.3599 15.3182C16.459 15.4624 16.5046 15.6366 16.4889 15.8109C16.4731 15.9851 16.3969 16.1483 16.2735 16.2723C16.1501 16.3963 15.9873 16.4733 15.8131 16.4899C15.639 16.5065 15.4645 16.4617 15.3199 16.3632C14.8711 16.6095 14.3506 16.6915 13.8479 16.5952C13.6529 16.5552 13.4819 16.4394 13.3724 16.2732C13.2628 16.107 13.2238 15.9042 13.2639 15.7092C13.3039 15.5143 13.4198 15.3433 13.5859 15.2337C13.7521 15.1242 13.9549 15.0852 14.1499 15.1252C14.3269 15.1622 14.6129 15.1042 14.8579 14.8592C15.2449 14.4712 15.1439 14.0842 15.0349 13.9752C14.9249 13.8662 14.5379 13.7652 14.1509 14.1522C13.3669 14.9362 12.0129 15.1962 11.1459 14.3282ZM10.0199 10.2932C10.2056 10.1075 10.3528 9.88698 10.4533 9.64431C10.5538 9.40163 10.6055 9.14154 10.6054 8.87889C10.6054 8.61624 10.5536 8.35617 10.453 8.11353C10.3525 7.87089 10.2051 7.65043 10.0194 7.46475C9.83361 7.27906 9.6131 7.13177 9.37043 7.0313C9.12775 6.93083 8.86766 6.87915 8.60501 6.87919C8.34236 6.87924 8.08229 6.93102 7.83965 7.03157C7.59701 7.13213 7.37656 7.27949 7.19087 7.46525C6.81585 7.84039 6.60522 8.34915 6.60531 8.8796C6.60541 9.41005 6.81622 9.91873 7.19137 10.2937C7.56652 10.6688 8.07527 10.8794 8.60572 10.8793C9.13617 10.8792 9.64485 10.6684 10.0199 10.2932Z" fill="#255C99"/>
</svg>
