<svg width="24" height="24" viewBox="0 0 24 24" fill="none" xmlns="http://www.w3.org/2000/svg">
<path fill-rule="evenodd" clip-rule="evenodd" d="M10.9401 7.94015C11.2214 7.65924 11.6026 7.50146 12.0001 7.50146C12.3976 7.50146 12.7789 7.65924 13.0601 7.94015L18.7181 13.5961C18.8574 13.7355 18.9679 13.9009 19.0432 14.0829C19.1185 14.2649 19.1573 14.46 19.1573 14.657C19.1572 14.854 19.1184 15.0491 19.0429 15.231C18.9675 15.413 18.857 15.5784 18.7176 15.7176C18.5783 15.8569 18.4129 15.9674 18.2309 16.0427C18.0488 16.1181 17.8538 16.1568 17.6568 16.1568C17.4598 16.1567 17.2647 16.1179 17.0827 16.0424C16.9007 15.967 16.7354 15.8565 16.5961 15.7171L12.0001 11.1221L7.40412 15.7181C7.26582 15.8615 7.10036 15.9758 6.91739 16.0545C6.73442 16.1332 6.53761 16.1747 6.33844 16.1765C6.13928 16.1783 5.94174 16.1405 5.75736 16.0651C5.57298 15.9898 5.40545 15.8785 5.26455 15.7377C5.12364 15.597 5.01218 15.4295 4.93668 15.2452C4.86117 15.0609 4.82312 14.8634 4.82476 14.6643C4.82639 14.4651 4.86768 14.2682 4.94621 14.0852C5.02473 13.9022 5.13893 13.7366 5.28212 13.5981L10.9401 7.94015Z" fill="black"/>
</svg>
